<?xml version="1.0" encoding="UTF-8" standalone="no"?>
<svg
   xmlns:dc="http://purl.org/dc/elements/1.1/"
   xmlns:cc="http://creativecommons.org/ns#"
   xmlns:rdf="http://www.w3.org/1999/02/22-rdf-syntax-ns#"
   xmlns:svg="http://www.w3.org/2000/svg"
   xmlns="http://www.w3.org/2000/svg"
   xmlns:sodipodi="http://sodipodi.sourceforge.net/DTD/sodipodi-0.dtd"
   xmlns:inkscape="http://www.inkscape.org/namespaces/inkscape"
   width="210mm"
   height="297mm"
   viewBox="0 0 210 297"
   version="1.1"
   id="svg959"
   inkscape:version="1.0 (4035a4fb49, 2020-05-01)"
   sodipodi:docname="NoLama.svg">
  <defs
     id="defs953" />
  <sodipodi:namedview
     inkscape:snap-center="true"
     inkscape:snap-object-midpoints="true"
     inkscape:object-paths="true"
     inkscape:snap-intersection-paths="true"
     inkscape:snap-midpoints="true"
     inkscape:snap-smooth-nodes="true"
     id="base"
     pagecolor="#ffffff"
     bordercolor="#666666"
     borderopacity="1.0"
     inkscape:pageopacity="0.0"
     inkscape:pageshadow="2"
     inkscape:zoom="0.54274908"
     inkscape:cx="806.11494"
     inkscape:cy="497.15794"
     inkscape:document-units="mm"
     inkscape:current-layer="layer1"
     inkscape:document-rotation="0"
     showgrid="false"
     showguides="true"
     inkscape:guide-bbox="true"
     inkscape:window-width="1920"
     inkscape:window-height="1001"
     inkscape:window-x="-9"
     inkscape:window-y="-9"
     inkscape:window-maximized="1">
    <sodipodi:guide
       position="311.65156,186.21928"
       orientation="0,-1"
       id="guide1825" />
    <sodipodi:guide
       id="guide920"
       orientation="1,0"
       position="30.579259,140.94653" />
    <sodipodi:guide
       id="guide922"
       orientation="1,0"
       position="36.282773,141.93115" />
    <sodipodi:guide
       id="guide924"
       orientation="0,-1"
       position="30.579258,156.48159" />
    <sodipodi:guide
       id="guide926"
       orientation="0,-1"
       position="30.579258,130.66935" />
    <sodipodi:guide
       id="guide930"
       orientation="1,0"
       position="66.020227,177.7641" />
    <sodipodi:guide
       id="guide932"
       orientation="1,0"
       position="69.772735,161.27932" />
    <sodipodi:guide
       id="guide1128"
       orientation="1,0"
       position="438.46677,44.472681" />
  </sodipodi:namedview>
  <metadata
     id="metadata956">
    <rdf:RDF>
      <cc:Work
         rdf:about="">
        <dc:format>image/svg+xml</dc:format>
        <dc:type
           rdf:resource="http://purl.org/dc/dcmitype/StillImage" />
        <dc:title />
      </cc:Work>
    </rdf:RDF>
  </metadata>
  <g
     inkscape:label="Warstwa 1"
     inkscape:groupmode="layer"
     id="layer1">
    <path
       style="fill:none;stroke:#000000;stroke-width:0.264583px;stroke-linecap:butt;stroke-linejoin:miter;stroke-opacity:1"
       d="M 9.8024148,34.153679 C 10.153475,30.738206 10.164235,27.31454 10.200655,23.886287 l -0.9458302,-2.327276 1.3689802,-0.410695 -0.47914,-1.505885 2.19037,0.205348 c 1.54508,4.131375 2.83874,8.351488 5.42461,12.115524 l 0.22246,-20.654573 1.47166,0.01711 c 0.77534,7.700546 0.62671,15.401091 0.61604,23.101636 l -0.84974,0.02491 -0.29385,1.823219 -6.82144,-10.485909 0.37962,7.474139 -1.43328,-0.893279 -0.0927,1.810761 z"
       id="path1558"
       sodipodi:nodetypes="ccccccccccccccccc" />
    <path
       style="fill:none;stroke:#000000;stroke-width:0.264583px;stroke-linecap:butt;stroke-linejoin:miter;stroke-opacity:1"
       d="m 28.489065,24.160084 c -4.85747,-0.338102 -12.70698,10.262025 -3.36404,14.153105 3.89939,1.351756 8.8642,-1.952747 10.75657,-4.912451 1.47671,-2.57477 0.9502,-6.619121 -2.25883,-8.556161 1.33575,-3.297211 2.16973,-7.601191 3.01177,-9.514451 -0.67821,-0.71833 -1.55891,-0.568436 -2.60107,0.273797 -0.1468,-1.657078 -0.11148,-3.387001 -1.57434,-4.517653 -1.36703,2.240668 -1.60845,5.285338 -2.39572,7.940118 -3.66694,-0.339951 -4.79017,0.141639 -5.4075,1.505884 -0.57545,1.897639 2.77471,1.303084 4.48343,1.813906 z"
       id="path1560"
       sodipodi:nodetypes="ccccccccccc" />
    <path
       style="fill:none;stroke:#000000;stroke-width:0.264583px;stroke-linecap:butt;stroke-linejoin:miter;stroke-opacity:1"
       d="m 32.938275,26.418911 c 1.66053,1.61743 2.15117,3.49206 0.86908,5.809884 -2.31933,3.826016 -7.26458,5.55534 -9.55849,3.042555 -3.50901,-3.885266 1.76449,-8.966651 3.86373,-9.092012 -0.64377,3.003091 -3.89453,6.119746 -1.54011,6.981827 4.73347,1.911791 4.19071,-2.199987 6.36579,-6.742254 z"
       id="path1562"
       sodipodi:nodetypes="cccccc" />
    <path
       style="fill:none;stroke:#000000;stroke-width:0.264583px;stroke-linecap:butt;stroke-linejoin:miter;stroke-opacity:1"
       d="m 41.460205,14.98788 c -2.06931,7.728715 -4.04927,15.857562 -7.2214,23.341207 l 8.48772,-3.422465 c -0.26273,-0.473271 -0.5232,-0.947672 -1.16364,-1.232087 l -4.65455,1.848131 7.73476,-18.549757 -0.75294,-0.136898 -1.2492,2.566849 0.73583,-4.380756 z"
       id="path1564"
       sodipodi:nodetypes="cccccccccc" />
    <path
       style="fill:none;stroke:#000000;stroke-width:0.264583px;stroke-linecap:butt;stroke-linejoin:miter;stroke-opacity:1"
       d="m 42.726525,34.906622 c 1.21856,0.809323 2.66966,1.250657 4.4492,-1.300538 l 6.68383,6.459148 0.23714,-1.071701 -6.22474,-6.116901 c 1.69402,-2.922995 3.50749,-6.27382 1.2888,-8.032053 -3.88717,-3.404534 -11.37821,6.76259 -6.43423,10.062045 z"
       id="path1566"
       sodipodi:nodetypes="ccccccc" />
    <path
       style="fill:none;stroke:#000000;stroke-width:0.264583px;stroke-linecap:butt;stroke-linejoin:miter;stroke-opacity:1"
       d="m 43.117165,29.232923 2.83893,3.479882 c -0.62945,0.747839 -1.73841,1.921015 -2.82018,0.816527 -1.12628,-1.420456 -0.60357,-3.071293 -0.0188,-4.296409 z"
       id="path1568"
       sodipodi:nodetypes="cccc" />
    <path
       style="fill:none;stroke:#000000;stroke-width:0.264583px;stroke-linecap:butt;stroke-linejoin:miter;stroke-opacity:1"
       d="m 44.175695,28.041645 2.70002,3.582138 c 1.21733,-1.430957 2.41967,-4.297581 1.46365,-5.567879 -0.99563,-1.264222 -3.23318,0.0018 -4.16367,1.985741 z"
       id="path1570"
       sodipodi:nodetypes="cccc" />
    <path
       style="fill:none;stroke:#000000;stroke-width:0.264583px;stroke-linecap:butt;stroke-linejoin:miter;stroke-opacity:1"
       d="m 50.735085,27.944131 0.10024,6.688693 h 1.61099 c 0.80408,-4.214233 1.90024,-4.980295 1.64279,-0.77643 l 1.27977,-0.0242 c 1.95166,-4.578219 3.14861,-5.770746 2.00579,1.211327 l 1.60466,-0.03934 0.26621,-5.517708 c -0.036,-2.479237 -2.61079,-1.776306 -3.94468,1.185823 -0.44639,-4.929808 -2.85315,-1.325579 -3.43647,1.790835 l 0.0968,-4.380286 z"
       id="path1572"
       sodipodi:nodetypes="cccccccccccc" />
    <path
       style="fill:none;stroke:#000000;stroke-width:0.264583px;stroke-linecap:butt;stroke-linejoin:miter;stroke-opacity:1"
       d="m 60.324525,34.581531 c 1.07919,1.228926 2.45992,1.129302 3.11979,0.446848 l 6.32842,3.726874 0.38721,-0.726015 c -0.66261,-0.145838 -1.28545,-0.410987 -1.85133,-0.847018 l 0.41141,-0.592911 c -1.45369,-0.07094 -2.41685,-0.632411 -3.40017,-1.173724 1.69198,0.335635 3.36776,0.608091 4.74329,-0.290404 l -0.62921,-1.01642 c -1.00564,0.959993 -2.48215,1.213676 -4.8401,0.145203 2.27806,-3.20249 1.62029,-4.696867 0.38721,-5.856516 -3.34692,-2.487782 -7.27274,2.958571 -4.65652,6.184083 z"
       id="path1576"
       sodipodi:nodetypes="cccccccccccc" />
    <path
       style="fill:none;stroke:#000000;stroke-width:0.264583px;stroke-linecap:butt;stroke-linejoin:miter;stroke-opacity:1"
       d="m 63.371715,33.370647 c 1.80387,-1.814597 1.61519,-3.705491 0.48401,-4.307686 -1.16696,-0.600433 -2.69197,0.811714 -2.83146,2.165943 z"
       id="path1578"
       sodipodi:nodetypes="cccc" />
    <path
       style="fill:none;stroke:#000000;stroke-width:0.264583px;stroke-linecap:butt;stroke-linejoin:miter;stroke-opacity:1"
       d="m 62.760475,34.130026 c -0.29332,0.347585 -0.72424,0.608731 -1.42049,-0.01321 -0.76933,-0.727654 -0.75472,-1.633828 -0.67792,-1.868776 z"
       id="path1580"
       sodipodi:nodetypes="cccc" />
    <path
       sodipodi:nodetypes="ccccccccccccccccc"
       id="path1558-1"
       d="m 8.7964148,76.414041 c 0.35106,-3.415473 0.36182,-6.839139 0.39824,-10.267393 l -0.94583,-2.327276 1.36898,-0.410695 -0.47914,-1.505884 2.1903702,0.205348 c 1.54508,4.131375 2.83874,8.351487 5.42461,12.115524 l 0.22246,-20.654573 1.47166,0.01711 c 0.77534,7.700546 0.62671,15.401091 0.61604,23.101636 l -0.84974,0.02491 -0.29385,1.823219 -6.82144,-10.485909 0.37962,7.474139 -1.43328,-0.893279 -0.0927,1.810761 z"
       style="fill:none;stroke:#000000;stroke-width:0.264583px;stroke-linecap:butt;stroke-linejoin:miter;stroke-opacity:1" />
    <path
       sodipodi:nodetypes="ccccccccccc"
       id="path1560-1"
       d="m 27.483065,66.420446 c -4.85747,-0.338102 -12.70698,10.262025 -3.36404,14.153104 3.89939,1.351756 8.8642,-1.952746 10.75657,-4.912451 1.47671,-2.574769 0.9502,-6.61912 -2.25883,-8.55616 1.33575,-3.297211 2.16973,-7.601191 3.01177,-9.514451 -0.67821,-0.71833 -1.55891,-0.568436 -2.60107,0.273797 -0.1468,-1.657078 -0.11148,-3.387001 -1.57434,-4.517653 -1.36703,2.240668 -1.60845,5.285338 -2.39572,7.940118 -3.66694,-0.339951 -4.79017,0.141639 -5.4075,1.505884 -0.57545,1.897638 2.77471,1.303083 4.48343,1.813906 z"
       style="fill:none;stroke:#000000;stroke-width:0.264583px;stroke-linecap:butt;stroke-linejoin:miter;stroke-opacity:1" />
    <path
       sodipodi:nodetypes="cccccc"
       id="path1562-8"
       d="m 31.932275,68.679273 c 1.66053,1.61743 2.15117,3.49206 0.86908,5.809884 -2.31933,3.826016 -7.26458,5.55534 -9.55849,3.042555 -3.50901,-3.885266 1.76449,-8.966652 3.86373,-9.092012 -0.64377,3.003091 -3.89453,6.119746 -1.54011,6.981827 4.73347,1.911791 4.19071,-2.199987 6.36579,-6.742254 z"
       style="fill:none;stroke:#000000;stroke-width:0.264583px;stroke-linecap:butt;stroke-linejoin:miter;stroke-opacity:1" />
    <path
       sodipodi:nodetypes="cccccccccc"
       id="path1564-3"
       d="m 40.454205,57.248242 c -2.06931,7.728714 -4.04927,15.857562 -7.2214,23.341207 l 8.48772,-3.422465 c -0.26273,-0.473271 -0.5232,-0.947672 -1.16364,-1.232087 l -4.65455,1.848131 7.73476,-18.549757 -0.75294,-0.136898 -1.2492,2.566849 0.73583,-4.380756 z"
       style="fill:none;stroke:#000000;stroke-width:0.264583px;stroke-linecap:butt;stroke-linejoin:miter;stroke-opacity:1" />
    <path
       sodipodi:nodetypes="ccccccc"
       id="path1566-2"
       d="m 41.720525,77.166984 c 1.21856,0.809323 2.66966,1.250657 4.4492,-1.300538 l 6.68383,6.459149 0.23714,-1.071703 -6.22474,-6.1169 c 1.69402,-2.922995 3.50749,-6.27382 1.2888,-8.032053 -3.88717,-3.404534 -11.37821,6.76259 -6.43423,10.062045 z"
       style="fill:none;stroke:#000000;stroke-width:0.264583px;stroke-linecap:butt;stroke-linejoin:miter;stroke-opacity:1" />
    <path
       sodipodi:nodetypes="cccc"
       id="path1568-1"
       d="m 42.111165,71.493285 2.83893,3.479882 c -0.62945,0.747839 -1.73841,1.921015 -2.82018,0.816527 -1.12628,-1.420456 -0.60357,-3.071294 -0.0188,-4.296409 z"
       style="fill:none;stroke:#000000;stroke-width:0.264583px;stroke-linecap:butt;stroke-linejoin:miter;stroke-opacity:1" />
    <path
       sodipodi:nodetypes="cccc"
       id="path1570-2"
       d="m 43.169695,70.302007 2.70002,3.582138 c 1.21733,-1.430957 2.41967,-4.297581 1.46365,-5.567879 -0.99563,-1.264222 -3.23318,0.0018 -4.16367,1.985741 z"
       style="fill:none;stroke:#000000;stroke-width:0.264583px;stroke-linecap:butt;stroke-linejoin:miter;stroke-opacity:1" />
    <path
       sodipodi:nodetypes="cccccccccccc"
       id="path1572-2"
       d="m 49.729085,70.204493 0.10024,6.688693 h 1.61099 c 0.80408,-4.214233 1.90024,-4.980295 1.64279,-0.77643 l 1.27977,-0.0242 c 1.95166,-4.578219 3.14861,-5.770746 2.00579,1.211327 l 1.60466,-0.03934 0.26621,-5.517708 c -0.036,-2.479237 -2.61079,-1.776306 -3.94468,1.185823 -0.44639,-4.929808 -2.85315,-1.325579 -3.43647,1.790835 l 0.0968,-4.380286 z"
       style="fill:none;stroke:#000000;stroke-width:0.264583px;stroke-linecap:butt;stroke-linejoin:miter;stroke-opacity:1" />
    <path
       sodipodi:nodetypes="cccccccccccc"
       id="path1576-8"
       d="m 59.318525,76.841893 c 1.07919,1.228926 2.45992,1.129302 3.11979,0.446848 l 6.32842,3.726872 0.38721,-0.726014 c -0.66261,-0.145838 -1.28545,-0.410987 -1.85133,-0.847017 l 0.41141,-0.592911 c -1.45369,-0.07094 -2.41685,-0.632411 -3.40017,-1.173724 1.69198,0.335635 3.36776,0.608091 4.74329,-0.290404 l -0.62921,-1.01642 c -1.00564,0.959993 -2.48215,1.213676 -4.8401,0.145203 2.27806,-3.20249 1.62029,-4.696867 0.38721,-5.856516 -3.34692,-2.487782 -7.27274,2.958571 -4.65652,6.184083 z"
       style="fill:none;stroke:#000000;stroke-width:0.264583px;stroke-linecap:butt;stroke-linejoin:miter;stroke-opacity:1" />
    <path
       sodipodi:nodetypes="cccc"
       id="path1578-2"
       d="m 62.365715,75.631009 c 1.80387,-1.814597 1.61519,-3.705491 0.48401,-4.307686 -1.16696,-0.600434 -2.69197,0.811714 -2.83146,2.165943 z"
       style="fill:none;stroke:#000000;stroke-width:0.264583px;stroke-linecap:butt;stroke-linejoin:miter;stroke-opacity:1" />
    <path
       sodipodi:nodetypes="cccc"
       id="path1580-8"
       d="m 61.754475,76.390388 c -0.29332,0.347585 -0.72424,0.608731 -1.42049,-0.01321 -0.76933,-0.727654 -0.75472,-1.633828 -0.67792,-1.868776 z"
       style="fill:none;stroke:#000000;stroke-width:0.264583px;stroke-linecap:butt;stroke-linejoin:miter;stroke-opacity:1" />
    <path
       style="fill:none;stroke:#000000;stroke-width:0.264583px;stroke-linecap:butt;stroke-linejoin:miter;stroke-opacity:1"
       d="m 101.137,70.267364 c 0.35106,-3.415473 0.36182,-6.839139 0.39824,-10.267393 l -0.94583,-2.327276 1.36898,-0.410695 -0.47914,-1.505884 2.19037,0.205348 c 1.54508,4.131375 2.83874,8.351486 5.42461,12.115524 l 0.22246,-20.654573 1.47166,0.01711 c 0.77534,7.700546 0.62671,15.401091 0.61604,23.101636 l -0.84974,0.02491 -0.29385,1.823219 -6.82144,-10.485909 0.37962,7.474139 -1.43328,-0.893279 -0.0927,1.810761 z"
       id="path1558-1-9"
       sodipodi:nodetypes="ccccccccccccccccc" />
    <path
       style="fill:none;stroke:#000000;stroke-width:0.264583px;stroke-linecap:butt;stroke-linejoin:miter;stroke-opacity:1"
       d="m 119.82365,60.273769 c -4.85747,-0.338102 -12.70698,10.262025 -3.36404,14.153104 3.89939,1.351756 8.8642,-1.952746 10.75657,-4.912451 1.47671,-2.574769 0.9502,-6.61912 -2.25883,-8.55616 1.33575,-3.297211 2.16973,-7.601191 3.01177,-9.514451 -0.67821,-0.71833 -1.55891,-0.568436 -2.60107,0.273797 -0.1468,-1.657078 -0.11148,-3.387001 -1.57434,-4.517653 -1.36703,2.240668 -1.60845,5.285338 -2.39572,7.940118 -3.66694,-0.339951 -4.79017,0.141639 -5.4075,1.505884 -0.57545,1.897637 2.77471,1.303082 4.48343,1.813906 z"
       id="path1560-1-5"
       sodipodi:nodetypes="ccccccccccc" />
    <path
       style="fill:none;stroke:#000000;stroke-width:0.264583px;stroke-linecap:butt;stroke-linejoin:miter;stroke-opacity:1"
       d="m 124.27286,62.532596 c 1.66053,1.61743 2.15117,3.49206 0.86908,5.809884 -2.31933,3.826016 -7.26458,5.55534 -9.55849,3.042555 -3.50901,-3.885266 1.76449,-8.966653 3.86373,-9.092012 -0.64377,3.003091 -3.89453,6.119746 -1.54011,6.981827 4.73347,1.911791 4.19071,-2.199987 6.36579,-6.742254 z"
       id="path1562-8-8"
       sodipodi:nodetypes="cccccc" />
    <path
       style="fill:none;stroke:#000000;stroke-width:0.264583px;stroke-linecap:butt;stroke-linejoin:miter;stroke-opacity:1"
       d="m 132.79479,51.101565 c -2.06931,7.728713 -4.04927,15.857562 -7.2214,23.341207 l 8.48772,-3.422465 c -0.26273,-0.473271 -0.5232,-0.947672 -1.16364,-1.232087 l -4.65455,1.848131 7.73476,-18.549757 -0.75294,-0.136898 -1.2492,2.566849 0.73583,-4.380756 z"
       id="path1564-3-2"
       sodipodi:nodetypes="cccccccccc" />
    <path
       style="fill:none;stroke:#000000;stroke-width:0.264583px;stroke-linecap:butt;stroke-linejoin:miter;stroke-opacity:1"
       d="m 134.06111,71.020307 c 1.21856,0.809323 2.66966,1.250657 4.4492,-1.300538 l 6.68383,6.459149 0.23714,-1.071703 -6.22474,-6.1169 c 1.69402,-2.922995 3.50749,-6.27382 1.2888,-8.032053 -3.88717,-3.404534 -11.37821,6.76259 -6.43423,10.062045 z"
       id="path1566-2-2"
       sodipodi:nodetypes="ccccccc" />
    <path
       style="fill:none;stroke:#000000;stroke-width:0.264583px;stroke-linecap:butt;stroke-linejoin:miter;stroke-opacity:1"
       d="m 134.45175,65.346608 2.83893,3.479882 c -0.62945,0.747839 -1.73841,1.921015 -2.82018,0.816527 -1.12628,-1.420456 -0.60357,-3.071294 -0.0188,-4.296409 z"
       id="path1568-1-2"
       sodipodi:nodetypes="cccc" />
    <path
       style="fill:none;stroke:#000000;stroke-width:0.264583px;stroke-linecap:butt;stroke-linejoin:miter;stroke-opacity:1"
       d="m 135.51028,64.15533 2.70002,3.582138 c 1.21733,-1.430957 2.41967,-4.297581 1.46365,-5.567879 -0.99563,-1.264222 -3.23318,0.0018 -4.16367,1.985741 z"
       id="path1570-2-3"
       sodipodi:nodetypes="cccc" />
    <path
       style="fill:none;stroke:#000000;stroke-width:0.264583px;stroke-linecap:butt;stroke-linejoin:miter;stroke-opacity:1"
       d="m 142.06967,64.057816 0.10024,6.688693 h 1.61099 c 0.80408,-4.214233 1.90024,-4.980295 1.64279,-0.77643 l 1.27977,-0.0242 c 1.95166,-4.578219 3.14861,-5.770746 2.00579,1.211327 l 1.60466,-0.03934 0.26621,-5.517708 c -0.036,-2.479237 -2.61079,-1.776306 -3.94468,1.185823 -0.44639,-4.929808 -2.85315,-1.325579 -3.43647,1.790835 l 0.0968,-4.380286 z"
       id="path1572-2-1"
       sodipodi:nodetypes="cccccccccccc" />
    <path
       sodipodi:nodetypes="ccccccc"
       id="path1566-2-2-3"
       d="m 153.41829,72.104824 c 1.21856,0.809323 2.66966,1.250657 4.4492,-1.300538 l 6.68383,6.459149 0.23714,-1.071703 -6.22474,-6.1169 c 1.69402,-2.922995 3.50749,-6.27382 1.2888,-8.032053 -3.88717,-3.404535 -11.37821,6.76259 -6.43423,10.062045 z"
       style="fill:none;stroke:#000000;stroke-width:0.264583px;stroke-linecap:butt;stroke-linejoin:miter;stroke-opacity:1" />
    <path
       sodipodi:nodetypes="cccc"
       id="path1568-1-2-7"
       d="m 153.80893,66.431125 2.83893,3.479882 c -0.62945,0.747839 -1.73841,1.921015 -2.82018,0.816526 -1.12628,-1.420455 -0.60357,-3.071293 -0.0188,-4.296408 z"
       style="fill:none;stroke:#000000;stroke-width:0.264583px;stroke-linecap:butt;stroke-linejoin:miter;stroke-opacity:1" />
    <path
       sodipodi:nodetypes="cccc"
       id="path1570-2-3-6"
       d="m 154.86746,65.239847 2.70002,3.582137 c 1.21733,-1.430956 2.41967,-4.297581 1.46365,-5.567879 -0.99563,-1.264221 -3.23318,0.0018 -4.16367,1.985742 z"
       style="fill:none;stroke:#000000;stroke-width:0.264583px;stroke-linecap:butt;stroke-linejoin:miter;stroke-opacity:1" />
    <path
       style="fill:#000000;stroke:#000000;stroke-width:0.264583px;stroke-linecap:butt;stroke-linejoin:miter;stroke-opacity:1"
       d="m 101.08421,113.82808 c 0,0 0.0956,-8.41216 0.13203,-11.84042 l -0.67962,-2.32727 1.36898,-0.4107 -0.47914,-1.505878 2.19037,0.20534 c 1.54508,4.131378 2.83874,7.915878 5.42461,11.679918 l 0.22246,-18.81534 1.9508,0.01711 c 0,0 0.14757,15.4011 0.1369,23.10164 l -2.42407,0.0249 c 0,0 -4.42732,-8.35443 -5.54096,-10.06632 l 0.37962,9.91839 z"
       id="path1558-1-5"
       sodipodi:nodetypes="cccccccccccccc" />
    <path
       style="fill:#000000;stroke:#000000;stroke-width:0.264583px;stroke-linecap:butt;stroke-linejoin:miter;stroke-opacity:1"
       d="m 119.19005,99.79301 c -4.85747,-0.3381 -10.00323,10.98074 -2.54265,14.0162 8.03108,1.98049 13.17209,-10.02089 7.53945,-13.29749 l 3.24548,-9.451868 -2.74628,0.903009 -1.52594,-5.243667 c 0,0 -1.60845,5.285338 -2.39572,7.940115 -3.66694,-0.33995 -4.35456,-0.148766 -4.97189,1.215484 -0.57545,1.897631 2.3391,1.593486 4.04782,2.104306 z"
       id="path1560-1-7"
       sodipodi:nodetypes="cccccccccc" />
    <path
       style="fill:#ffffff;stroke:#000000;stroke-width:0.264583px;stroke-linecap:butt;stroke-linejoin:miter;stroke-opacity:1"
       d="m 123.29701,102.97591 c 2.9049,4.1343 -2.88036,10.92251 -6.94395,8.13372 -3.33789,-2.65319 0.36128,-9.17201 2.46052,-9.29737 0,0 -2.73089,5.09301 -0.78717,6.70803 3.26181,2.49361 5.2706,-5.54438 5.2706,-5.54438 z"
       id="path1562-8-9"
       sodipodi:nodetypes="ccccc" />
    <path
       style="fill:#000000;stroke:#000000;stroke-width:0.264583px;stroke-linecap:butt;stroke-linejoin:miter;stroke-opacity:1"
       d="m 132.20959,90.620804 c -2.06931,7.728716 -4.48488,17.164396 -7.2214,23.341206 l 9.45574,-3.37406 -1.20759,-1.62274 -4.8042,1.60957 6.96034,-18.276973 z"
       id="path1564-3-1"
       sodipodi:nodetypes="ccccccc" />
    <path
       style="fill:#000000;stroke:#000000;stroke-width:0.264583px;stroke-linecap:butt;stroke-linejoin:miter;stroke-opacity:1"
       d="m 135.51446,114.86041 c 1.42165,0.34469 3.45522,0.20433 4.25687,-2.80112 l 8.36123,3.93807 -0.0974,-1.38806 -7.73433,-3.69864 c 0.69961,-3.26772 1.39975,-6.77229 -1.73547,-7.91513 -4.81592,-1.87291 -8.82428,10.45151 -3.05091,11.86488 z"
       id="path1566-2-9"
       sodipodi:nodetypes="ccccccc" />
    <path
       style="fill:#ffffff;stroke:#000000;stroke-width:0.264583px;stroke-linecap:butt;stroke-linejoin:miter;stroke-opacity:1"
       d="m 138.23944,111.4851 c -0.33632,0.9178 -1.13104,2.11992 -2.52489,1.4511 -2.0251,-1.19838 -1.55672,-3.16007 -1.24137,-3.74888 z"
       id="path1568-1-4"
       sodipodi:nodetypes="cccc" />
    <path
       style="fill:#ffffff;stroke:#000000;stroke-width:0.264583px;stroke-linecap:butt;stroke-linejoin:miter;stroke-opacity:1"
       d="m 134.97129,107.70241 3.76073,2.44515 c 0.65566,-1.76059 0.85873,-4.65248 -0.47354,-5.52008 -1.36741,-0.84835 -2.89554,1.00236 -3.28719,3.07493 z"
       id="path1570-2-0"
       sodipodi:nodetypes="cccc" />
    <path
       style="fill:#000000;stroke:#000000;stroke-width:0.264583px;stroke-linecap:butt;stroke-linejoin:miter;stroke-opacity:1"
       d="m 142.27915,105.02279 -0.0208,5.35767 1.75619,0.99221 c 0.80408,-4.21423 2.65318,-3.38348 2.39573,0.82039 l 1.27977,0.55762 c 0.56491,-2.96041 1.2675,-4.91681 1.7119,-4.64674 0.66884,0.40644 0.35616,4.09717 0.025,8.15875 l 1.60466,0.0404 c 0.0717,-2.91782 0.28824,-7.49702 -0.2178,-9.88311 -0.49803,-1.95463 -1.99474,-1.77631 -3.32863,1.18582 -0.44639,-4.92981 -3.4692,-1.32558 -4.05252,1.79084 l 0.0968,-4.38029 z"
       id="path1572-2-5"
       sodipodi:nodetypes="cccccsccccccc" />
    <path
       style="fill:#000000;stroke:#000000;stroke-width:0.264583px;stroke-linecap:butt;stroke-linejoin:miter;stroke-opacity:1"
       d="m 153.78727,112.7449 c 1.40147,1.59564 3.19453,1.46631 4.05147,0.5802 l 8.21831,4.83901 0.50285,-0.94269 c -0.86048,-0.18938 -1.66932,-0.53364 -2.40421,-1.09976 l 0.53428,-0.76984 c -1.88782,-0.0921 -3.13863,-0.82109 -4.41559,-1.52397 2.19727,0.43579 4.3735,0.78955 6.15981,-0.37706 l -0.81712,-1.31974 c -1.30596,1.24646 -3.2234,1.57586 -6.28552,0.18854 2.95837,-4.15815 2.10416,-6.09845 0.50283,-7.60415 -4.34642,-3.23017 -9.44463,3.84143 -6.04711,8.02946 z"
       id="path1576-8-1"
       sodipodi:nodetypes="cccccccccccc" />
    <path
       style="fill:#ffffff;stroke:#000000;stroke-width:0.264583px;stroke-linecap:butt;stroke-linejoin:miter;stroke-opacity:1"
       d="m 157.74446,111.17267 c 2.34257,-2.35606 2.09754,-4.81124 0.62855,-5.59313 -1.51545,-0.77961 -3.49589,1.05395 -3.67705,2.81229 z"
       id="path1578-2-8"
       sodipodi:nodetypes="cccc" />
    <path
       style="fill:#ffffff;stroke:#000000;stroke-width:0.264583px;stroke-linecap:butt;stroke-linejoin:miter;stroke-opacity:1"
       d="m 156.95068,112.15867 c -0.38091,0.45131 -0.94052,0.79037 -1.84471,-0.0171 -0.99907,-0.94479 -0.98011,-2.12138 -0.88036,-2.42644 z"
       id="path1580-8-4"
       sodipodi:nodetypes="cccc" />
    <path
       sodipodi:nodetypes="cccccccccccccc"
       id="path1558-1-5-1"
       d="m 187.14051,108.70148 c 0,0 0.0956,-8.41216 0.13203,-11.840417 l -0.67962,-2.32727 1.36898,-0.4107 -0.47914,-1.505878 2.19037,0.205339 c 1.54508,4.131379 2.83874,7.915876 5.42461,11.679916 l 0.22246,-18.815338 1.9508,0.01711 c 0,0 0.14757,15.401098 0.1369,23.101638 l -2.42407,0.0249 c 0,0 -4.42732,-8.35443 -5.54096,-10.066321 l 0.37962,9.918391 z"
       style="fill:#000000;stroke:#000000;stroke-width:0.264583px;stroke-linecap:butt;stroke-linejoin:miter;stroke-opacity:1" />
    <path
       sodipodi:nodetypes="cccccccccc"
       id="path1560-1-7-8"
       d="m 205.24635,94.666413 c -4.85747,-0.338101 -10.00323,10.980737 -2.54265,14.016197 8.03108,1.98049 13.17209,-10.02089 7.53945,-13.297487 l 3.24548,-9.451869 -2.74628,0.903009 -1.52594,-5.243667 c 0,0 -1.60845,5.285338 -2.39572,7.940115 -3.66694,-0.33995 -4.35456,-0.148766 -4.97189,1.215484 -0.57545,1.897632 2.3391,1.593487 4.04782,2.104307 z"
       style="fill:#000000;stroke:#000000;stroke-width:0.264583px;stroke-linecap:butt;stroke-linejoin:miter;stroke-opacity:1" />
    <path
       sodipodi:nodetypes="ccccc"
       id="path1562-8-9-7"
       d="m 209.35331,97.849313 c 2.9049,4.134297 -2.88036,10.922507 -6.94395,8.133717 -3.33789,-2.65319 0.36128,-9.172007 2.46052,-9.297367 0,0 -2.73089,5.093007 -0.78717,6.708027 3.26181,2.49361 5.2706,-5.544377 5.2706,-5.544377 z"
       style="fill:#ffffff;stroke:#000000;stroke-width:0.264583px;stroke-linecap:butt;stroke-linejoin:miter;stroke-opacity:1" />
    <path
       sodipodi:nodetypes="ccccccc"
       id="path1564-3-1-9"
       d="m 218.26589,85.494206 c -2.06931,7.728716 -4.48488,17.164394 -7.2214,23.341204 l 9.45574,-3.37406 -1.20759,-1.62274 -4.8042,1.60957 6.96034,-18.276971 z"
       style="fill:#000000;stroke:#000000;stroke-width:0.264583px;stroke-linecap:butt;stroke-linejoin:miter;stroke-opacity:1" />
    <path
       sodipodi:nodetypes="cccccccc"
       id="path1566-2-9-2"
       d="m 221.57076,108.40451 c 1.42165,0.34469 3.50362,-0.61849 4.30527,-3.62394 l 8.19183,3.74447 0.0236,-1.38806 -7.73432,-3.73494 c 0.6996,-3.26772 1.39974,-5.71957 -1.73548,-6.862407 -4.81592,-1.87291 -8.82428,10.451507 -3.05091,11.864877 z"
       style="fill:#000000;stroke:#000000;stroke-width:0.264583px;stroke-linecap:butt;stroke-linejoin:miter;stroke-opacity:1" />
    <path
       sodipodi:nodetypes="cccc"
       id="path1568-1-4-0"
       d="m 224.31994,104.15798 c -0.33632,0.9178 -1.34884,2.57973 -2.74269,1.91091 -2.0251,-1.19838 -1.26632,-3.23267 -0.95097,-3.82148 z"
       style="fill:#ffffff;stroke:#000000;stroke-width:0.264583px;stroke-linecap:butt;stroke-linejoin:miter;stroke-opacity:1" />
    <path
       sodipodi:nodetypes="cccc"
       id="path1570-2-0-1"
       d="m 220.97919,100.7383 3.80913,1.93694 c 0.65566,-1.76059 1.05233,-3.34565 -0.27994,-4.21325 -1.36741,-0.848354 -3.13754,0.20374 -3.52919,2.27631 z"
       style="fill:#ffffff;stroke:#000000;stroke-width:0.264583px;stroke-linecap:butt;stroke-linejoin:miter;stroke-opacity:1" />
    <path
       sodipodi:nodetypes="cccccsccccccc"
       id="path1572-2-5-9"
       d="m 228.33545,97.55047 -0.0208,5.35767 1.75619,0.99221 c 0.80408,-4.21423 2.65318,-3.38348 2.39573,0.82039 l 1.27977,0.55762 c 0.56491,-2.96041 1.2675,-4.91681 1.7119,-4.64674 0.66884,0.40644 0.35616,4.09717 0.025,8.15875 l 1.60466,0.0404 c 0.0717,-2.91782 0.28824,-7.49702 -0.2178,-9.88311 -0.49803,-1.95463 -1.99474,-1.77631 -3.32863,1.18582 -0.44639,-4.929806 -3.4692,-1.32558 -4.05252,1.79084 l 0.0968,-4.38029 z"
       style="fill:#000000;stroke:#000000;stroke-width:0.264583px;stroke-linecap:butt;stroke-linejoin:miter;stroke-opacity:1" />
    <path
       sodipodi:nodetypes="cccccccccccc"
       id="path1576-8-1-8"
       d="m 241.28489,108.15127 c 1.87001,1.00662 3.50535,0.26 3.99941,-0.86935 l 9.39001,1.66864 0.14247,-1.05888 c -0.8725,0.12265 -1.75062,0.0821 -2.63682,-0.19212 l 0.23222,-0.90785 c -1.80139,0.57214 -3.22792,0.3252 -4.66984,0.11186 2.21128,-0.35797 4.37423,-0.78548 5.64146,-2.50187 l -1.22612,-0.95186 c -0.78919,1.62369 -2.47133,2.60119 -5.82503,2.36903 1.32226,-4.92887 -0.15507,-6.44938 -2.18101,-7.30199 -5.20012,-1.511324 -7.51165,6.8944 -2.86675,9.63439 z"
       style="fill:#000000;stroke:#000000;stroke-width:0.264583px;stroke-linecap:butt;stroke-linejoin:miter;stroke-opacity:1" />
    <path
       sodipodi:nodetypes="cccc"
       id="path1578-2-8-4"
       d="m 244.44519,105.29754 c 1.37369,-3.02516 0.2877,-5.2407 -1.36176,-5.46111 -1.6922,-0.20208 -2.90874,2.2071 -2.46523,3.9182 z"
       style="fill:#ffffff;stroke:#000000;stroke-width:0.264583px;stroke-linecap:butt;stroke-linejoin:miter;stroke-opacity:1" />
    <path
       sodipodi:nodetypes="cccc"
       id="path1580-8-4-2"
       d="m 244.04517,106.49849 c -0.19958,0.55582 -0.60578,1.06878 -1.73483,0.62739 -1.26586,-0.53699 -1.65848,-1.6463 -1.67139,-1.967 z"
       style="fill:#ffffff;stroke:#000000;stroke-width:0.264583px;stroke-linecap:butt;stroke-linejoin:miter;stroke-opacity:1" />
    <rect
       style="fill:#ffeeaa;stroke:none;stroke-width:0.705556;stroke-linecap:square"
       id="rect1949"
       width="26.136515"
       height="30.734606"
       x="11.227019"
       y="174.53729" />
    <path
       d="m 26.671112,175.61222 c 0,0 -1.60843,5.2853 -2.3957,7.94008 -3.66694,-0.33995 -4.35446,-0.14882 -4.97181,1.21543 -0.57544,1.89764 2.3391,1.59345 4.04783,2.10427 l -0.65061,1.81384 c -4.85748,-0.3381 -10.00307,10.98074 -2.54248,14.0162 8.03108,1.98049 13.17223,-10.02078 7.53959,-13.29738 l 3.24527,-9.45162 -2.74608,0.90279 z m -4.3465,15.09314 c 0,0 -2.73073,5.09309 -0.78703,6.70811 3.26181,2.49361 5.27048,-5.54436 5.27048,-5.54436 2.90491,4.1343 -2.88068,10.92214 -6.94428,8.13335 -3.33788,-2.65319 0.3616,-9.17174 2.46083,-9.2971 z"
       style="fill:#ffffff;stroke:none;stroke-width:0.264583px;stroke-linecap:butt;stroke-linejoin:miter;stroke-opacity:1"
       id="path1560-1-7-8-9-1" />
    <rect
       style="fill:#ffdd55;fill-opacity:1;stroke:none;stroke-width:0.705557;stroke-linecap:square"
       id="rect1951"
       width="22.041758"
       height="33.471931"
       x="47.730988"
       y="166.33066" />
    <path
       id="path1560-1-7-8-9-1-2"
       style="fill:#ffffff;stroke:none;stroke-width:0.264583px;stroke-linecap:butt;stroke-linejoin:miter;stroke-opacity:1"
       d="m 61.821112,170.11585 c 0,0 -1.60843,5.2853 -2.3957,7.94008 -3.66694,-0.33995 -4.35446,-0.14882 -4.97181,1.21543 -0.57544,1.89764 2.3391,1.59345 4.04783,2.10427 l -0.65061,1.81384 c -4.85748,-0.3381 -10.00307,10.98074 -2.54248,14.0162 8.03108,1.98049 13.17223,-10.02078 7.53959,-13.29738 l 3.24527,-9.45162 -2.74608,0.90279 z m -4.3465,15.09314 c 0,0 -2.73073,5.09309 -0.78703,6.70811 3.26181,2.49361 5.27048,-5.54436 5.27048,-5.54436 2.90491,4.1343 -2.88068,10.92214 -6.94428,8.13335 -3.33788,-2.65319 0.3616,-9.17174 2.46083,-9.2971 z" />
    <rect
       style="fill:#ffdd55;fill-opacity:1;stroke:none;stroke-width:0.705556;stroke-linecap:square"
       id="rect1986"
       width="33.493462"
       height="33.493462"
       x="109.62616"
       y="156.43535" />
    <g
       id="g1990"
       transform="translate(-298.83407,-0.95290477)"
       style="fill:#d42aff;fill-opacity:1">
      <path
         style="fill:#d42aff;fill-opacity:1;stroke:none;stroke-width:0.264583px;stroke-linecap:butt;stroke-linejoin:miter;stroke-opacity:1"
         d="m 412.30673,187.58927 c 0,0 0.0956,-8.41216 0.13203,-11.84042 l -0.67962,-2.32727 1.36898,-0.4107 -0.47914,-1.50588 2.19037,0.20534 c 1.54508,4.13138 2.83874,7.91588 5.42461,11.67992 l 0.22246,-18.81534 1.9508,0.0171 c 0,0 0.14757,15.4011 0.1369,23.10164 l -2.42407,0.0249 c 0,0 -4.42732,-8.35443 -5.54096,-10.06632 l 0.37962,9.91839 z"
         id="path1558-1-5-1-9-0"
         sodipodi:nodetypes="cccccccccccccc" />
      <path
         id="path1560-1-7-8-9-8"
         style="fill:#d42aff;fill-opacity:1;stroke:none;stroke-width:0.264583px;stroke-linecap:butt;stroke-linejoin:miter;stroke-opacity:1"
         d="m 434.38269,160.48044 c 0,0 -1.60843,5.28531 -2.3957,7.94009 -3.66694,-0.33995 -4.35446,-0.14882 -4.97181,1.21543 -0.57544,1.89764 2.3391,1.59344 4.04783,2.10426 l -0.65061,1.81385 c -4.85748,-0.3381 -10.00307,10.98074 -2.54249,14.01619 8.03109,1.9805 13.17223,-10.02077 7.5396,-13.29737 l 3.24527,-9.45162 -2.74608,0.90278 z m -4.3465,15.09314 c 0,0 -2.73074,5.0931 -0.78703,6.70812 3.26181,2.49361 5.27047,-5.54437 5.27047,-5.54437 2.90492,4.13431 -2.88067,10.92215 -6.94428,8.13336 -3.33787,-2.65319 0.36161,-9.17175 2.46084,-9.29711 z" />
    </g>
    <path
       sodipodi:nodetypes="cccccccccccccc"
       id="path1558-1-5-1-9-2"
       d="m 103.802,226.34682 c 0,0 0.0956,-8.41217 0.13203,-11.84043 l -0.67962,-2.32727 1.36898,-0.4107 -0.47914,-1.50588 2.19037,0.20534 c 1.54508,4.13138 2.83874,7.91588 5.42461,11.67992 l 0.22246,-18.81534 1.9508,0.0171 c 0,0 0.14757,15.4011 0.1369,23.10164 l -2.42407,0.0249 c 0,0 -4.42732,-8.35443 -5.54096,-10.06632 l 0.37962,9.91839 z"
       style="fill:#ffdd55;stroke:none;stroke-width:0.264583px;stroke-linecap:butt;stroke-linejoin:miter;stroke-opacity:1" />
    <path
       sodipodi:nodetypes="ccccccc"
       id="path1564-3-1-9-1-0"
       d="m 134.92738,203.13953 c -2.06931,7.72872 -4.48488,17.1644 -7.2214,23.34121 l 9.45574,-3.37406 -1.20759,-1.62274 -4.8042,1.60957 6.96034,-18.27697 z"
       style="fill:#ffdd55;stroke:none;stroke-width:0.264583px;stroke-linecap:butt;stroke-linejoin:miter;stroke-opacity:1" />
    <path
       d="m 140.17374,213.9942 c -4.27286,0.17716 -7.26382,10.75264 -1.94149,12.05559 1.42166,0.34469 3.50351,-0.61862 4.30517,-3.62407 l 8.19174,3.74448 0.0238,-1.38803 -7.73443,-3.73466 c 0.69961,-3.26772 1.39993,-5.71979 -1.73527,-6.86263 -0.37627,-0.14632 -0.7474,-0.2057 -1.10951,-0.19068 z m -0.077,1.81952 c 0.36436,-0.0117 0.73146,0.0814 1.07331,0.29353 1.33228,0.8676 0.93522,2.45259 0.27958,4.21318 l -3.80907,-1.93684 c 0.29374,-1.55442 1.36308,-2.53471 2.45618,-2.56987 z m -2.80914,4.07883 3.69383,1.91099 c -0.33632,0.9178 -1.34861,2.5793 -2.74246,1.91048 -2.0251,-1.19838 -1.26672,-3.23267 -0.95137,-3.82147 z"
       style="fill:#ffdd55;stroke:none;stroke-width:0.264583px;stroke-linecap:butt;stroke-linejoin:miter;stroke-opacity:1"
       id="path1566-2-9-2-7-7" />
    <path
       d="m 125.87796,199.23799 c 0,0 -1.60843,5.28531 -2.3957,7.94009 -3.66694,-0.33995 -4.35446,-0.14882 -4.97181,1.21543 -0.57544,1.89763 2.3391,1.59344 4.04783,2.10426 l -0.65061,1.81384 c -4.85748,-0.3381 -10.00307,10.98074 -2.54249,14.0162 8.03109,1.98049 13.17223,-10.02078 7.5396,-13.29738 l 3.24527,-9.45162 -2.74608,0.90279 z m -4.3465,15.09314 c 0,0 -2.73074,5.0931 -0.78703,6.70811 3.26181,2.49362 5.27047,-5.54436 5.27047,-5.54436 2.90492,4.1343 -2.88067,10.92215 -6.94428,8.13335 -3.33787,-2.65319 0.36161,-9.17174 2.46084,-9.2971 z"
       style="fill:#d42aff;fill-opacity:1;stroke:none;stroke-width:0.264583px;stroke-linecap:butt;stroke-linejoin:miter;stroke-opacity:1"
       id="path1560-1-7-8-9-16" />
    <path
       sodipodi:nodetypes="cccccsccccccc"
       id="path1572-2-5-9-2-9"
       d="m 144.99694,215.1958 -0.0208,5.35767 1.75619,0.99221 c 0.80408,-4.21423 2.65318,-3.38348 2.39573,0.82039 l 1.27977,0.55762 c 0.56491,-2.96041 1.2675,-4.91681 1.7119,-4.64674 0.66884,0.40644 0.35616,4.09717 0.025,8.15875 l 1.60466,0.0404 c 0.0717,-2.91781 0.28824,-7.49701 -0.2178,-9.88311 -0.49803,-1.95463 -1.99474,-1.77631 -3.32863,1.18582 -0.44639,-4.92981 -3.46921,-1.32558 -4.05252,1.79084 l 0.0968,-4.38029 z"
       style="fill:#ffdd55;stroke:none;stroke-width:0.264583px;stroke-linecap:butt;stroke-linejoin:miter;stroke-opacity:1" />
    <path
       d="m 159.76013,215.98529 c -0.11192,-0.005 -0.22186,-0.004 -0.3302,5.3e-4 -4.18939,0.19136 -5.69307,7.32766 -1.48363,9.81077 1.87,1.00662 3.50518,0.26015 3.99923,-0.8692 l 9.39012,1.66864 0.14263,-1.05886 c -0.87249,0.12265 -1.75085,0.082 -2.63704,-0.19223 l 0.23254,-0.90796 c -1.80139,0.57214 -3.22808,0.32548 -4.67,0.11214 2.21128,-0.35797 4.3743,-0.78578 5.64152,-2.50217 l -1.22629,-0.95189 c -0.78917,1.62369 -2.47126,2.60152 -5.82496,2.36936 1.32226,-4.92887 -0.15481,-6.44979 -2.18075,-7.3024 -0.36563,-0.10626 -0.71742,-0.16316 -1.05317,-0.17673 z m -0.17259,1.48518 c 0.0519,0.001 0.10472,0.005 0.15761,0.0114 1.64947,0.22041 2.73537,2.43601 1.36168,5.46117 l -3.82717,-1.54306 c -0.42963,-1.65763 0.69847,-3.97027 2.30788,-3.92948 z m -2.28719,5.33352 3.40651,1.33998 c -0.1996,0.55581 -0.60574,1.06874 -1.73479,0.62735 -1.26585,-0.53699 -1.65881,-1.64662 -1.67172,-1.96733 z"
       style="fill:#ffdd55;stroke:none;stroke-width:0.264583px;stroke-linecap:butt;stroke-linejoin:miter;stroke-opacity:1"
       id="path1576-8-1-8-1-7" />
    <path
       style="fill:#d42aff;fill-opacity:1;stroke:none;stroke-width:0.264583px;stroke-linecap:butt;stroke-linejoin:miter;stroke-opacity:1"
       d="m 218.4784,227.3527 c 0,0 0.0956,-8.41217 0.13203,-11.84043 l -0.67962,-2.32727 1.36898,-0.4107 -0.47914,-1.50588 2.19037,0.20534 c 1.54508,4.13138 2.83874,7.91588 5.42461,11.67992 l 0.22246,-18.81534 1.9508,0.0171 c 0,0 0.14757,15.4011 0.1369,23.10165 l -2.42407,0.0249 c 0,0 -4.42732,-8.35443 -5.54096,-10.06633 l 0.37962,9.91839 z"
       id="path1558-1-5-1-9-2-1"
       sodipodi:nodetypes="cccccccccccccc"
       inkscape:export-xdpi="96"
       inkscape:export-ydpi="96" />
    <path
       style="fill:#ffdd55;stroke:none;stroke-width:0.264583px;stroke-linecap:butt;stroke-linejoin:miter;stroke-opacity:1"
       d="m 249.60378,204.14541 c -2.06931,7.72872 -4.48488,17.1644 -7.2214,23.34122 l 9.45574,-3.37407 -1.20759,-1.62274 -4.8042,1.60957 6.96034,-18.27697 z"
       id="path1564-3-1-9-1-0-7"
       sodipodi:nodetypes="ccccccc"
       inkscape:export-xdpi="96"
       inkscape:export-ydpi="96" />
    <path
       id="path1566-2-9-2-7-7-5"
       style="fill:#ffdd55;stroke:none;stroke-width:0.264583px;stroke-linecap:butt;stroke-linejoin:miter;stroke-opacity:1"
       d="m 254.85014,215.00008 c -4.27286,0.17716 -7.26382,10.75264 -1.94149,12.0556 1.42166,0.34468 3.50351,-0.61863 4.30517,-3.62408 l 8.19174,3.74448 0.0238,-1.38803 -7.73443,-3.73466 c 0.69961,-3.26772 1.39993,-5.71979 -1.73527,-6.86263 -0.37627,-0.14632 -0.7474,-0.2057 -1.10951,-0.19068 z m -0.077,1.81952 c 0.36436,-0.0117 0.73146,0.0814 1.07331,0.29353 1.33228,0.8676 0.93522,2.45259 0.27958,4.21318 l -3.80907,-1.93684 c 0.29374,-1.55442 1.36308,-2.53471 2.45618,-2.56987 z m -2.80914,4.07883 3.69383,1.91099 c -0.33632,0.9178 -1.34861,2.5793 -2.74246,1.91048 -2.0251,-1.19838 -1.26672,-3.23267 -0.95137,-3.82147 z"
       inkscape:export-xdpi="96"
       inkscape:export-ydpi="96" />
    <path
       id="path1560-1-7-8-9-16-0"
       style="fill:#d42aff;fill-opacity:1;stroke:none;stroke-width:0.264583px;stroke-linecap:butt;stroke-linejoin:miter;stroke-opacity:1"
       d="m 240.55436,200.24387 c 0,0 -1.60843,5.28531 -2.3957,7.94009 -3.66694,-0.33995 -4.35446,-0.14882 -4.97181,1.21543 -0.57544,1.89763 2.3391,1.59344 4.04783,2.10426 l -0.65061,1.81384 c -4.85748,-0.3381 -10.00307,10.98074 -2.54249,14.0162 8.03109,1.9805 13.17223,-10.02078 7.5396,-13.29738 l 3.24527,-9.45162 -2.74608,0.90279 z m -4.3465,15.09314 c 0,0 -2.73074,5.0931 -0.78703,6.70811 3.26181,2.49362 5.27047,-5.54436 5.27047,-5.54436 2.90492,4.1343 -2.88067,10.92215 -6.94428,8.13335 -3.33787,-2.65319 0.36161,-9.17174 2.46084,-9.2971 z"
       inkscape:export-xdpi="96"
       inkscape:export-ydpi="96" />
    <path
       style="fill:#ffdd55;stroke:none;stroke-width:0.264583px;stroke-linecap:butt;stroke-linejoin:miter;stroke-opacity:1"
       d="m 259.67334,216.20168 -0.0208,5.35767 1.75619,0.99221 c 0.80408,-4.21423 2.65318,-3.38348 2.39573,0.82039 l 1.27977,0.55762 c 0.56491,-2.96041 1.2675,-4.91681 1.7119,-4.64674 0.66884,0.40644 0.35616,4.09717 0.025,8.15876 l 1.60466,0.0404 c 0.0717,-2.91782 0.28825,-7.49702 -0.21779,-9.88312 -0.49803,-1.95463 -1.99474,-1.77631 -3.32863,1.18582 -0.44639,-4.92981 -3.46921,-1.32558 -4.05252,1.79084 l 0.0968,-4.38029 z"
       id="path1572-2-5-9-2-9-5"
       sodipodi:nodetypes="cccccsccccccc"
       inkscape:export-xdpi="96"
       inkscape:export-ydpi="96" />
    <path
       id="path1576-8-1-8-1-7-4"
       style="fill:#ffdd55;stroke:none;stroke-width:0.264583px;stroke-linecap:butt;stroke-linejoin:miter;stroke-opacity:1"
       d="m 274.43653,216.99117 c -0.11192,-0.005 -0.22186,-0.004 -0.3302,5.3e-4 -4.18939,0.19136 -5.69307,7.32766 -1.48363,9.81077 1.87,1.00662 3.50518,0.26016 3.99923,-0.8692 l 9.39012,1.66865 0.14263,-1.05887 c -0.87249,0.12265 -1.75085,0.082 -2.63704,-0.19223 l 0.23254,-0.90796 c -1.80139,0.57214 -3.22808,0.32548 -4.67,0.11214 2.21128,-0.35797 4.3743,-0.78578 5.64152,-2.50217 l -1.22629,-0.95189 c -0.78917,1.62369 -2.47126,2.60152 -5.82496,2.36936 1.32226,-4.92887 -0.15481,-6.44979 -2.18075,-7.3024 -0.36563,-0.10626 -0.71742,-0.16316 -1.05317,-0.17673 z m -0.17259,1.48518 c 0.0519,0.001 0.10472,0.005 0.15761,0.0114 1.64947,0.22041 2.73537,2.43601 1.36168,5.46117 l -3.82717,-1.54306 c -0.42963,-1.65763 0.69847,-3.97027 2.30788,-3.92948 z m -2.28719,5.33352 3.40651,1.33998 c -0.1996,0.55581 -0.60574,1.06874 -1.73479,0.62735 -1.26585,-0.53699 -1.65881,-1.64662 -1.67172,-1.96733 z"
       inkscape:export-xdpi="96"
       inkscape:export-ydpi="96" />
    <ellipse
       style="fill:#ffffff;fill-opacity:1;stroke:none;stroke-width:0.705556;stroke-linecap:square"
       id="path2143"
       cx="298.43491"
       cy="113.13721"
       rx="0.96801907"
       ry="1.6577326"
       transform="rotate(20.416627)"
       inkscape:export-xdpi="96"
       inkscape:export-ydpi="96" />
    <rect
       y="197.18625"
       x="293.56717"
       height="33.493462"
       width="33.493462"
       id="rect1986-3"
       style="fill:#f770d8;fill-opacity:1;stroke:none;stroke-width:0.705556;stroke-linecap:square"
       inkscape:export-xdpi="96"
       inkscape:export-ydpi="96" />
    <path
       sodipodi:nodetypes="cccccccccccccc"
       id="path1558-1-5-1-9-2-1-5"
       d="m 297.41365,227.38727 c 0,0 0.0956,-8.41217 0.13203,-11.84043 l -0.67962,-2.32727 1.36898,-0.4107 -0.47914,-1.50588 2.19037,0.20534 c 1.54508,4.13138 2.83874,7.91588 5.42461,11.67992 l 0.22246,-18.81534 1.9508,0.0171 c 0,0 0.14757,15.4011 0.1369,23.10166 l -2.42407,0.0249 c 0,0 -4.42732,-8.35444 -5.54096,-10.06634 l 0.37962,9.91839 z"
       style="fill:#ffffff;fill-opacity:1;stroke:none;stroke-width:0.264583px;stroke-linecap:butt;stroke-linejoin:miter;stroke-opacity:1"
       inkscape:export-xdpi="96"
       inkscape:export-ydpi="96" />
    <path
       d="m 319.48961,200.27844 c 0,0 -1.60843,5.28532 -2.3957,7.94009 -3.66694,-0.33994 -4.35446,-0.14881 -4.97181,1.21544 -0.57544,1.89762 2.3391,1.59343 4.04783,2.10425 l -0.65061,1.81384 c -4.85748,-0.3381 -10.00307,10.98074 -2.54249,14.0162 8.03109,1.98051 13.17223,-10.02078 7.5396,-13.29738 l 3.24527,-9.45162 -2.74608,0.9028 z m -4.3465,15.09314 c 0,0 -2.73074,5.0931 -0.78703,6.70811 3.26181,2.49362 5.27047,-5.54436 5.27047,-5.54436 2.90492,4.1343 -2.88067,10.92215 -6.94428,8.13335 -3.33787,-2.65319 0.36161,-9.17174 2.46084,-9.2971 z"
       style="fill:#ffffff;fill-opacity:1;stroke:none;stroke-width:0.264583px;stroke-linecap:butt;stroke-linejoin:miter;stroke-opacity:1"
       id="path1560-1-7-8-9-16-0-9"
       inkscape:export-xdpi="96"
       inkscape:export-ydpi="96" />
    <ellipse
       transform="rotate(20.416627)"
       ry="1.6577326"
       rx="0.96801907"
       cy="85.633514"
       cx="372.42361"
       id="path2143-1"
       style="fill:#f770d8;fill-opacity:1;stroke:none;stroke-width:0.705556;stroke-linecap:square"
       inkscape:export-xdpi="96"
       inkscape:export-ydpi="96" />
  </g>
</svg>
